<?xml version="1.0" encoding="UTF-8"?>
<svg id="Layer_1" xmlns="http://www.w3.org/2000/svg" viewBox="0 0 838.58 219.77">
  <defs>
    <style>
      .cls-1 {
        fill: #fff;
      }
    </style>
  </defs>
  <path class="cls-1" d="M216.55,76.43v78.35h18.49v-57.99s47.84,21.54,66.55,57.99h20.6v-78.35h-19.37v49.94s-40.07-43.79-69.06-49.94h-17.21Z"/>
  <polygon class="cls-1" points="333.63 101.96 333.63 154.78 382.78 154.78 392.69 141.57 349.47 141.57 349.47 133.65 382.11 133.65 391.49 121.33 349.47 121.33 349.47 115.17 383.27 115.17 393.56 101.96 333.63 101.96 333.63 101.96"/>
  <polygon class="cls-1" points="778.17 101.08 778.17 153.02 827.32 153.02 837.23 139.81 794.02 139.81 794.02 132.77 826.42 132.77 835.8 120.45 794.9 120.45 794.9 114.29 828.19 114.29 838.58 101.08 778.1 101.08 778.17 101.08"/>
  <path class="cls-1" d="M438.54,135.79l-23.37-34.71h-19.71l33.04,48.28s9,11.45,19.78,0c34.27-48.15,34.27-47.4,34.27-47.4h-19.35l-24.67,33.83h0Z"/>
  <path class="cls-1" d="M485.37,124.35c-5.81-20.81,17.79-21.51,17.79-21.51h48.82l-10.08,13.2h-38.7s-4.11,1.76-3.05,4.46c1.06,2.7,3.05,2.58,3.05,2.58h33.84s17.66.24,16.71,14.58c-.95,14.34-9.84,15.64-9.84,15.64,0,0-5.09,1.66-5.93,1.42-.83-.24-55.58,0-55.58,0l10.31-13.15h40.87s3.66.61,4.51-3.78c.85-4.39-5.73-4.14-5.73-4.14h-32.83s-9.42-1.16-12.32-5.7c0,0-1.74-2.56-1.8-3.08l-.06-.52h0Z"/>
  <path class="cls-1" d="M575.71,139.81v13.2h-15.85v-26.41h47.73s6.64-.36,6.64-7.01-12.81-5.32-12.81-5.32h-41.4l11.17-14.08h34.82s20.02.88,22.4,14.49c2.37,13.61-5.01,18.27-5.01,18.27,0,0-7.99,5.97-15.63,5.97s-31.54.88-31.54.88h-.52Z"/>
  <path class="cls-1" d="M677.97,140.69h-21.91l-9.66,13.2h59.92l-32.75-47.26s-2.56-4.77-9.45-5.21c-6.89-.44-11.78,7.77-11.78,7.77l-31.41,44.71h18.85l23.85-33.8,14.35,20.59h0Z"/>
  <path class="cls-1" d="M761.93,115.17l10.77-14.08h-39.81s-26.81.97-28.34,25.51c-1.53,24.54,26.37,26.42,26.37,26.42h31.55l10.02-13.2h-38.31s-13.3-.62-13.77-12.9c-.48-12.27,14.84-12.63,14.84-12.63l26.89.88h-.21Z"/>
  <path class="cls-1" d="M35.53,130.17s8.28,5.44,16.82,1.9c0,0,7.3-2.79,11.9-7.21l57.62-47.91s11.86-9.53,18.5-8.42c6.64,1.11,10.4,9.03,10.4,9.03l5.89,10.98s.02.35-.46.21c-.48-.13-5.13-2.89-9.78-3.13-4.65-.24-17.58,8.63-17.58,8.63l-61.31,50.45s-16.35,11.33-21.66,5.43c-5.28-5.87-9.81-14.71-11.02-18.87,0-.02-.01-.04-.02-.07,0,0,.1-.72.69-1h0Z"/>
  <path class="cls-1" d="M45.46,155.66s-5.84-4.9-11.27-13.75c0,0-24.55,37.47-28.8,49.33C1.14,203.1.2,207.71.2,207.71c0,0-1.48,8.91,3.66,10.92,5.13,2.01,8.5.77,8.5.77,0,0,6.94-1.36,10.37-3.48,0,0,18.07-10.86,32.94-22.89l59.36-51.1s15.34-12.69,20.65-12.45c5.31.24,4.84,2.6,4.84,2.6,0,0,.35,5.19-2.36,10.62-2.71,5.43-11.09,15.34-20.06,20.42-8.97,5.08-22.35,8.5-22.35,8.5,0,0-.25.18-.1.66.16.49,10.67-.91,10.67-.91,0,0,18.48-4,31.22-14.98,12.75-10.97,19.12-22.54,19.12-22.54,0,0,7.11-15.34,3.33-21.95-3.78-6.61-5.66-10.86-16.05-9.91-10.39.94-28.8,18.06-28.8,18.06l-68.8,59.72s-11.92,8.14-12.54,8.14-5.22,2.74-5.4-1.77c0,0,1.33-4.96,2.83-7.08,0,0,13.04-22.31,14.22-23.37h0Z"/>
  <path class="cls-1" d="M145.41,63.96s5.82,4.92,11.21,13.8c0,0,24.7-37.37,29-49.21,4.3-11.84,5.26-16.44,5.26-16.44,0,0,1.51-8.9-3.61-10.93-5.13-2.03-8.5-.8-8.5-.8,0,0-6.95,1.33-10.39,3.44,0,0-18.11,10.78-33.03,22.76l-59.57,50.85s-15.39,12.62-20.7,12.36c-5.31-.26-4.83-2.62-4.83-2.62,0,0-.33-5.19,2.4-10.61,2.74-5.42,11.16-15.29,20.15-20.33,8.99-5.04,22.38-8.4,22.38-8.4,0,0,.25-.18.1-.66-.15-.49-10.67.86-10.67.86,0,0-18.49,3.93-31.28,14.85-12.79,10.92-19.21,22.46-19.21,22.46,0,0-7.17,15.31-3.42,21.94,3.75,6.62,5.62,10.88,16.01,9.98,10.39-.9,28.87-17.94,28.87-17.94l69.05-59.43s11.95-8.09,12.57-8.09c.62,0,5.23-2.72,5.39,1.79,0,0-1.35,4.95-2.86,7.07,0,0-13.13,22.25-14.32,23.31h0Z"/>
</svg>